<svg width="10" height="10" viewBox="0 0 10 10" fill="none" xmlns="http://www.w3.org/2000/svg">
<path d="M9.45036 5.0903L7.96621 6.17423L8.52986 7.91977C8.62094 8.1905 8.6221 8.48342 8.53315 8.75485C8.4442 9.02629 8.2699 9.26171 8.03625 9.42602C7.8066 9.5956 7.52831 9.68645 7.24284 9.68502C6.95736 9.6836 6.67999 9.58997 6.45205 9.4181L5.00083 8.35001L3.5492 9.41685C3.31997 9.58546 3.04318 9.67704 2.75862 9.67843C2.47405 9.67982 2.19638 9.59093 1.96552 9.42456C1.73465 9.25819 1.56249 9.0229 1.47378 8.75251C1.38507 8.48213 1.38438 8.19057 1.47181 7.91977L2.03546 6.17423L0.551307 5.0903C0.322373 4.92292 0.152189 4.68748 0.065063 4.41759C-0.022063 4.14771 -0.0216727 3.8572 0.0661746 3.58755C0.154023 3.31791 0.324836 3.08292 0.554218 2.91615C0.783598 2.74938 1.05981 2.65937 1.34341 2.65897H3.16649L3.71971 0.934685C3.80671 0.663269 3.97766 0.426495 4.20791 0.258508C4.43816 0.0905204 4.71582 0 5.00083 0C5.28585 0 5.56351 0.0905204 5.79376 0.258508C6.02401 0.426495 6.19496 0.663269 6.28196 0.934685L6.83518 2.65897H8.65659C8.94019 2.65937 9.2164 2.74938 9.44579 2.91615C9.67517 3.08292 9.84598 3.31791 9.93383 3.58755C10.0217 3.8572 10.0221 4.14771 9.93494 4.41759C9.84781 4.68748 9.67763 4.92292 9.4487 5.0903H9.45036Z" fill="#EFC956"/>
</svg>
