<svg width="54" height="54" viewBox="0 0 54 54" fill="none" xmlns="http://www.w3.org/2000/svg">
<rect width="54" height="54" rx="14" fill="white"/>
<path d="M27.7413 28.2963C27.6004 28.2963 27.4596 28.2444 27.3484 28.1332L25.8659 26.6507C25.6509 26.4357 25.6509 26.0799 25.8659 25.865C26.0808 25.65 26.4366 25.65 26.6516 25.865L28.1341 27.3475C28.3491 27.5625 28.3491 27.9183 28.1341 28.1332C28.023 28.2444 27.8821 28.2963 27.7413 28.2963Z" fill="#030F26"/>
<g clip-path="url(#clip0_11_551)">
<path d="M32.2147 18.6587L23.5787 27.2947C23.2488 27.6228 22.9873 28.013 22.8093 28.4428C22.6313 28.8726 22.5404 29.3335 22.5417 29.7987V30.75C22.5417 30.9378 22.6163 31.118 22.7491 31.2508C22.882 31.3837 23.0621 31.4583 23.25 31.4583H24.2013C24.6665 31.4596 25.1273 31.3686 25.5572 31.1906C25.987 31.0126 26.3772 30.7511 26.7053 30.4213L35.3413 21.7853C35.7552 21.3703 35.9877 20.8081 35.9877 20.222C35.9877 19.6359 35.7552 19.0737 35.3413 18.6587C34.9203 18.2563 34.3603 18.0317 33.778 18.0317C33.1956 18.0317 32.6357 18.2563 32.2147 18.6587ZM34.3397 20.7837L25.7037 29.4197C25.3043 29.8167 24.7644 30.0402 24.2013 30.0416H23.9583V29.7987C23.9598 29.2355 24.1833 28.6957 24.5803 28.2963L33.2163 19.6603C33.3675 19.5158 33.5687 19.4351 33.778 19.4351C33.9872 19.4351 34.1884 19.5158 34.3397 19.6603C34.4884 19.8094 34.5719 20.0114 34.5719 20.222C34.5719 20.4326 34.4884 20.6346 34.3397 20.7837Z" fill="#030F26"/>
<path d="M35.2917 24.3601C35.1038 24.3601 34.9236 24.4348 34.7908 24.5676C34.658 24.7004 34.5833 24.8806 34.5833 25.0685V28.625H31.75C31.1864 28.625 30.6459 28.8489 30.2474 29.2474C29.8489 29.6459 29.625 30.1864 29.625 30.75V33.5833H22.5417C21.9781 33.5833 21.4376 33.3595 21.0391 32.9609C20.6406 32.5624 20.4167 32.0219 20.4167 31.4583V21.5417C20.4167 20.9781 20.6406 20.4376 21.0391 20.0391C21.4376 19.6406 21.9781 19.4167 22.5417 19.4167H28.9464C29.1343 19.4167 29.3144 19.342 29.4473 19.2092C29.5801 19.0764 29.6548 18.8962 29.6548 18.7083C29.6548 18.5205 29.5801 18.3403 29.4473 18.2075C29.3144 18.0746 29.1343 18 28.9464 18H22.5417C21.6027 18.0011 20.7025 18.3746 20.0386 19.0386C19.3746 19.7025 19.0011 20.6027 19 21.5417V31.4583C19.0011 32.3973 19.3746 33.2975 20.0386 33.9614C20.7025 34.6254 21.6027 34.9989 22.5417 35H30.5763C31.0416 35.0013 31.5026 34.9104 31.9325 34.7324C32.3624 34.5544 32.7528 34.2929 33.081 33.963L34.9623 32.0803C35.2922 31.7522 35.5538 31.362 35.7319 30.9322C35.91 30.5024 36.0011 30.0415 36 29.5763V25.0685C36 24.8806 35.9254 24.7004 35.7925 24.5676C35.6597 24.4348 35.4795 24.3601 35.2917 24.3601ZM32.0794 32.9614C31.7946 33.2455 31.4346 33.4421 31.0417 33.5281V30.75C31.0417 30.5621 31.1163 30.382 31.2491 30.2491C31.382 30.1163 31.5621 30.0417 31.75 30.0417H34.5302C34.4426 30.4337 34.2462 30.7932 33.9635 31.0787L32.0794 32.9614Z" fill="#030F26"/>
</g>
<defs>
<clipPath id="clip0_11_551">
<rect width="17" height="17" fill="white" transform="translate(19 18)"/>
</clipPath>
</defs>
</svg>
