<svg width="48" height="48" viewBox="0 0 48 48" fill="none" xmlns="http://www.w3.org/2000/svg">
<g clip-path="url(#clip0_3_80)">
<path d="M19.75 30H23.75C24.302 30 24.75 29.553 24.75 29C24.75 28.447 24.302 28 23.75 28H19.75C19.198 28 18.75 28.447 18.75 29C18.75 29.553 19.198 30 19.75 30ZM14.75 31V19C14.75 16.243 16.993 14 19.75 14H19.921C20.334 12.836 21.446 12 22.75 12H24.75C26.054 12 27.166 12.836 27.579 14H27.75C30.507 14 32.75 16.243 32.75 19V31C32.75 33.757 30.507 36 27.75 36H19.75C16.993 36 14.75 33.757 14.75 31ZM26.75 16C26.198 16 25.75 15.553 25.75 15C25.75 14.447 25.301 14 24.75 14H22.75C22.199 14 21.75 14.448 21.75 15C21.75 15.552 21.302 16 20.75 16H19.75C18.096 16 16.75 17.346 16.75 19V31C16.75 32.654 18.096 34 19.75 34H27.75C29.404 34 30.75 32.654 30.75 31V19C30.75 17.346 29.404 16 27.75 16H26.75ZM27.75 28C28.302 28 28.75 28.448 28.75 29C28.75 29.552 28.302 30 27.75 30C27.198 30 26.75 29.552 26.75 29C26.75 28.448 27.198 28 27.75 28ZM18.75 25C18.75 24.447 19.198 24 19.75 24H23.75C24.302 24 24.75 24.447 24.75 25C24.75 25.553 24.302 26 23.75 26H19.75C19.198 26 18.75 25.553 18.75 25ZM27.75 24C28.302 24 28.75 24.448 28.75 25C28.75 25.552 28.302 26 27.75 26C27.198 26 26.75 25.552 26.75 25C26.75 24.448 27.198 24 27.75 24ZM18.75 21C18.75 20.447 19.198 20 19.75 20H23.75C24.302 20 24.75 20.447 24.75 21C24.75 21.553 24.302 22 23.75 22H19.75C19.198 22 18.75 21.553 18.75 21ZM27.75 20C28.302 20 28.75 20.448 28.75 21C28.75 21.552 28.302 22 27.75 22C27.198 22 26.75 21.552 26.75 21C26.75 20.448 27.198 20 27.75 20Z" fill="#BDBCBF"/>
</g>
<defs>
<clipPath id="clip0_3_80">
<rect width="24" height="24" fill="white" transform="translate(12 12)"/>
</clipPath>
</defs>
</svg>
