<svg width="48" height="48" viewBox="0 0 48 48" fill="none" xmlns="http://www.w3.org/2000/svg">
<g clip-path="url(#clip0_3_78)">
<path d="M33.797 17.5835L26.797 12.8595C25.098 11.7135 22.902 11.7135 21.203 12.8595L14.204 17.5835C12.824 18.5135 12 20.0625 12 21.7285V31.0045C12 33.7615 14.243 36.0045 17 36.0045H31C33.757 36.0045 36 33.7615 36 31.0045V21.7285C36 20.0635 35.176 18.5135 33.797 17.5835ZM28 28.0045C28 29.1075 27.103 30.0045 26 30.0045H22C20.897 30.0045 20 29.1075 20 28.0045V24.0045C20 22.9015 20.897 22.0045 22 22.0045H26C27.103 22.0045 28 22.9015 28 24.0045V28.0045ZM26 24.0045L26.002 28.0045H22V24.0045H26Z" fill="#247CFF"/>
</g>
<defs>
<clipPath id="clip0_3_78">
<rect width="24" height="24" fill="white" transform="translate(12 12)"/>
</clipPath>
</defs>
</svg>
