<svg width="32" height="32" viewBox="0 0 32 32" fill="none" xmlns="http://www.w3.org/2000/svg">
<circle cx="16" cy="16" r="16" fill="#579BFC"/>
<path d="M18.4539 9.87796C18.4537 10.1099 18.3614 10.3324 18.1973 10.4963L13.7219 14.9716C13.5865 15.1071 13.479 15.2678 13.4057 15.4448C13.3324 15.6217 13.2947 15.8114 13.2947 16.003C13.2947 16.1945 13.3324 16.3842 13.4057 16.5611C13.479 16.7381 13.5865 16.8989 13.7219 17.0343L18.1914 21.5038C18.3508 21.6688 18.439 21.8898 18.437 22.1193C18.435 22.3487 18.343 22.5682 18.1808 22.7304C18.0186 22.8926 17.7991 22.9846 17.5697 22.9866C17.3403 22.9886 17.1192 22.9004 16.9542 22.741L12.4847 18.275C11.8837 17.6729 11.5462 16.8569 11.5462 16.0062C11.5462 15.1554 11.8837 14.3394 12.4847 13.7373L16.96 9.25904C17.0824 9.13659 17.2383 9.05319 17.4081 9.0194C17.5779 8.9856 17.7539 9.00293 17.9138 9.06919C18.0738 9.13545 18.2105 9.24766 18.3066 9.39163C18.4028 9.53559 18.454 9.70484 18.4539 9.87796Z" fill="white"/>
</svg>
