<svg width="22" height="22" viewBox="0 0 22 22" fill="none" xmlns="http://www.w3.org/2000/svg">
<path d="M18.3326 0H3.66651C1.64443 0 0 1.66785 0 3.71873V14.8749C0 16.9258 1.64443 18.5936 3.66651 18.5936H6.34582L9.78226 21.5287C10.1324 21.8438 10.5715 22 11.0078 22C11.4368 22 11.8612 21.8485 12.1921 21.55L15.7193 18.5936H18.3335C20.3556 18.5936 22 16.9258 22 14.8749V3.71873C22 1.66785 20.3547 0 18.3326 0ZM6.4164 11.1562C5.65743 11.1562 5.04146 10.5314 5.04146 9.76166C5.04146 8.99189 5.65743 8.36714 6.4164 8.36714C7.17537 8.36714 7.79134 8.99189 7.79134 9.76166C7.79134 10.5314 7.17537 11.1562 6.4164 11.1562ZM10.9995 11.1562C10.2406 11.1562 9.6246 10.5314 9.6246 9.76166C9.6246 8.99189 10.2406 8.36714 10.9995 8.36714C11.7585 8.36714 12.3745 8.99189 12.3745 9.76166C12.3745 10.5314 11.7585 11.1562 10.9995 11.1562ZM15.5827 11.1562C14.8237 11.1562 14.2077 10.5314 14.2077 9.76166C14.2077 8.99189 14.8237 8.36714 15.5827 8.36714C16.3417 8.36714 16.9576 8.99189 16.9576 9.76166C16.9576 10.5314 16.3417 11.1562 15.5827 11.1562Z" fill="white"/>
</svg>
