<svg width="48" height="48" viewBox="0 0 48 48" fill="none" xmlns="http://www.w3.org/2000/svg">
<g clip-path="url(#clip0_3_89)">
<path d="M24 20.3333C24.7252 20.3333 25.4341 20.5484 26.0371 20.9513C26.6401 21.3542 27.1101 21.9268 27.3876 22.5968C27.6651 23.2668 27.7377 24.0041 27.5962 24.7153C27.4548 25.4266 27.1055 26.0799 26.5927 26.5927C26.08 27.1055 25.4266 27.4547 24.7153 27.5962C24.0041 27.7377 23.2668 27.6651 22.5968 27.3876C21.9268 27.11 21.3542 26.6401 20.9513 26.0371C20.5484 25.4341 20.3334 24.7252 20.3334 24C20.3334 23.0275 20.7197 22.0949 21.4073 21.4073C22.0949 20.7197 23.0276 20.3333 24 20.3333ZM24 25.8333C24.3626 25.8333 24.7171 25.7258 25.0186 25.5244C25.3201 25.3229 25.555 25.0366 25.6938 24.7016C25.8326 24.3666 25.8689 23.998 25.7981 23.6423C25.7274 23.2867 25.5528 22.96 25.2964 22.7036C25.04 22.4473 24.7133 22.2726 24.3577 22.2019C24.0021 22.1312 23.6334 22.1675 23.2984 22.3062C22.9634 22.445 22.6771 22.68 22.4757 22.9815C22.2742 23.283 22.1667 23.6374 22.1667 24C22.1667 24.4862 22.3598 24.9526 22.7037 25.2964C23.0475 25.6402 23.5138 25.8333 24 25.8333Z" fill="#BDBCBF"/>
<path d="M15.4805 25.7417L15.8875 25.507C15.7043 24.5101 15.7043 23.4881 15.8875 22.4912L15.4805 22.2565C15.1675 22.0759 14.8932 21.8355 14.6731 21.5489C14.4531 21.2623 14.2916 20.9352 14.198 20.5862C14.1043 20.2372 14.0804 19.8732 14.1274 19.5149C14.1745 19.1566 14.2916 18.8112 14.4722 18.4982C14.6528 18.1852 14.8932 17.9108 15.1798 17.6908C15.4664 17.4707 15.7935 17.3093 16.1425 17.2156C16.4915 17.122 16.8555 17.098 17.2138 17.1451C17.5721 17.1921 17.9175 17.3093 18.2305 17.4898L18.6384 17.7254C19.4089 17.0672 20.2942 16.5569 21.25 16.2203V15.75C21.25 15.0207 21.5398 14.3212 22.0555 13.8055C22.5712 13.2897 23.2707 13 24 13C24.7294 13 25.4288 13.2897 25.9446 13.8055C26.4603 14.3212 26.75 15.0207 26.75 15.75V16.2203C27.7057 16.5581 28.5908 17.0696 29.3607 17.7291L29.7704 17.4917C30.4025 17.127 31.1536 17.0284 31.8584 17.2175C32.5633 17.4066 33.1641 17.8679 33.5288 18.5C33.8934 19.1321 33.9921 19.8832 33.803 20.588C33.6139 21.2928 33.1525 21.8937 32.5204 22.2583L32.1134 22.493C32.2967 23.4899 32.2967 24.5119 32.1134 25.5088L32.5204 25.7435C33.1525 26.1082 33.6139 26.709 33.803 27.4138C33.9921 28.1187 33.8934 28.8697 33.5288 29.5018C33.1641 30.1339 32.5633 30.5953 31.8584 30.7844C31.1536 30.9735 30.4025 30.8748 29.7704 30.5102L29.3625 30.2746C28.5918 30.9329 27.7061 31.4432 26.75 31.7798V32.25C26.75 32.9793 26.4603 33.6788 25.9446 34.1945C25.4288 34.7103 24.7294 35 24 35C23.2707 35 22.5712 34.7103 22.0555 34.1945C21.5398 33.6788 21.25 32.9793 21.25 32.25V31.7798C20.2943 31.4419 19.4092 30.9304 18.6394 30.2709L18.2296 30.5074C17.5975 30.8721 16.8464 30.9707 16.1416 30.7816C15.4368 30.5925 14.8359 30.1312 14.4713 29.4991C14.1066 28.867 14.008 28.1159 14.1971 27.4111C14.3862 26.7063 14.8475 26.1054 15.4796 25.7408L15.4805 25.7417ZM17.8162 22.2803C17.5058 23.4051 17.5058 24.593 17.8162 25.7178C17.8704 25.9136 17.858 26.1218 17.781 26.3098C17.7041 26.4978 17.5668 26.6549 17.3909 26.7564L16.3972 27.3303C16.1865 27.4518 16.0328 27.6521 15.9698 27.887C15.9068 28.1219 15.9397 28.3722 16.0612 28.5829C16.1828 28.7935 16.383 28.9473 16.618 29.0103C16.8529 29.0733 17.1032 29.0404 17.3139 28.9188L18.3094 28.3432C18.4854 28.2412 18.6905 28.2007 18.8921 28.2281C19.0938 28.2554 19.2806 28.3492 19.4231 28.4944C20.239 29.3274 21.2669 29.9216 22.3959 30.2132C22.5929 30.2638 22.7675 30.3786 22.8921 30.5394C23.0168 30.7002 23.0844 30.898 23.0843 31.1014V32.25C23.0843 32.4931 23.1808 32.7263 23.3528 32.8982C23.5247 33.0701 23.7578 33.1667 24.0009 33.1667C24.2441 33.1667 24.4772 33.0701 24.6491 32.8982C24.821 32.7263 24.9176 32.4931 24.9176 32.25V31.1023C24.9175 30.8989 24.9851 30.7012 25.1097 30.5403C25.2344 30.3795 25.409 30.2647 25.606 30.2141C26.735 29.9214 27.7626 29.3258 28.5779 28.4917C28.7204 28.3464 28.9072 28.2527 29.1088 28.2253C29.3105 28.1979 29.5155 28.2384 29.6916 28.3404L30.6853 28.9152C30.7896 28.9763 30.9049 29.0162 31.0247 29.0326C31.1445 29.049 31.2663 29.0415 31.3832 29.0106C31.5 28.9797 31.6097 28.926 31.7057 28.8525C31.8017 28.7791 31.8823 28.6874 31.9427 28.5827C32.0032 28.478 32.0423 28.3624 32.0579 28.2425C32.0735 28.1226 32.0652 28.0009 32.0335 27.8842C32.0018 27.7675 31.9474 27.6583 31.8733 27.5627C31.7993 27.4672 31.707 27.3873 31.6019 27.3275L30.6083 26.7537C30.4323 26.6521 30.2951 26.4951 30.2181 26.3071C30.1411 26.1191 30.1287 25.9109 30.1829 25.7151C30.4934 24.5903 30.4934 23.4024 30.1829 22.2776C30.1297 22.0822 30.1427 21.8747 30.2198 21.6875C30.2969 21.5003 30.4338 21.3439 30.6092 21.2427L31.6029 20.6688C31.8135 20.5473 31.9673 20.347 32.0303 20.1121C32.0933 19.8772 32.0604 19.6269 31.9388 19.4162C31.8173 19.2055 31.617 19.0518 31.3821 18.9888C31.1472 18.9258 30.8968 18.9587 30.6862 19.0803L29.6907 19.6559C29.5151 19.7581 29.3105 19.7991 29.109 19.7724C28.9076 19.7457 28.7208 19.6528 28.5779 19.5083C27.7619 18.6754 26.734 18.0811 25.6051 17.7896C25.4074 17.7388 25.2324 17.6234 25.1077 17.4619C24.983 17.3003 24.9158 17.1018 24.9167 16.8977V15.75C24.9167 15.5069 24.8201 15.2737 24.6482 15.1018C24.4763 14.9299 24.2431 14.8333 24 14.8333C23.7569 14.8333 23.5237 14.9299 23.3518 15.1018C23.1799 15.2737 23.0834 15.5069 23.0834 15.75V16.8977C23.0835 17.1011 23.0159 17.2988 22.8912 17.4597C22.7666 17.6205 22.592 17.7353 22.3949 17.7859C21.2656 18.0785 20.2377 18.6741 19.4222 19.5083C19.2797 19.6536 19.0929 19.7473 18.8912 19.7747C18.6896 19.8021 18.4845 19.7616 18.3084 19.6596L17.3148 19.0848C17.2105 19.0237 17.0951 18.9838 16.9754 18.9674C16.8556 18.951 16.7337 18.9585 16.6169 18.9894C16.5 19.0203 16.3904 19.074 16.2944 19.1475C16.1983 19.2209 16.1178 19.3126 16.0573 19.4173C15.9969 19.522 15.9577 19.6376 15.9422 19.7575C15.9266 19.8774 15.9349 19.9991 15.9665 20.1158C15.9982 20.2325 16.0526 20.3417 16.1267 20.4373C16.2008 20.5328 16.293 20.6127 16.3981 20.6725L17.3918 21.2463C17.5668 21.3478 17.7034 21.5044 17.7801 21.6916C17.8569 21.8788 17.8696 22.0861 17.8162 22.2812V22.2803Z" fill="#BDBCBF"/>
</g>
<defs>
<clipPath id="clip0_3_89">
<rect width="22" height="22" fill="white" transform="matrix(-1 0 0 1 35 13)"/>
</clipPath>
</defs>
</svg>
