<svg width="16" height="16" viewBox="0 0 16 16" fill="none" xmlns="http://www.w3.org/2000/svg">
<path d="M7.62796 15.2559C3.42328 15.2559 0 11.8326 0 7.62796C0 3.42328 3.42328 0 7.62796 0C11.8326 0 15.2559 3.42328 15.2559 7.62796C15.2559 11.8326 11.8326 15.2559 7.62796 15.2559ZM7.62796 1.11629C4.03352 1.11629 1.11629 4.04096 1.11629 7.62796C1.11629 11.215 4.03352 14.1396 7.62796 14.1396C11.2224 14.1396 14.1396 11.215 14.1396 7.62796C14.1396 4.04096 11.2224 1.11629 7.62796 1.11629Z" fill="#BDBCBF"/>
<path d="M15.4423 16C15.301 16 15.1596 15.9479 15.0479 15.8363L13.5595 14.3479C13.3437 14.1321 13.3437 13.7749 13.5595 13.5591C13.7754 13.3432 14.1326 13.3432 14.3484 13.5591L15.8368 15.0474C16.0526 15.2633 16.0526 15.6205 15.8368 15.8363C15.7251 15.9479 15.5837 16 15.4423 16Z" fill="#BDBCBF"/>
</svg>
