<svg width="48" height="48" viewBox="0 0 48 48" fill="none" xmlns="http://www.w3.org/2000/svg">
<g clip-path="url(#clip0_11_392)">
<g clip-path="url(#clip1_11_392)">
<g clip-path="url(#clip2_11_392)">
<path d="M16.25 12H32.25C34.456 12 36.25 13.794 36.25 16V28C36.25 30.206 34.456 32 32.25 32H29.327L25.578 35.157C25.196 35.496 24.717 35.664 24.241 35.664C23.773 35.664 23.31 35.501 22.949 35.18L19.101 32H16.249C14.043 32 12.249 30.206 12.249 28V16C12.249 13.794 14.044 12 16.25 12ZM29.25 24C30.078 24 30.75 23.328 30.75 22.5C30.75 21.672 30.078 21 29.25 21C28.422 21 27.75 21.672 27.75 22.5C27.75 23.328 28.422 24 29.25 24ZM24.25 24C25.078 24 25.75 23.328 25.75 22.5C25.75 21.672 25.078 21 24.25 21C23.422 21 22.75 21.672 22.75 22.5C22.75 23.328 23.422 24 24.25 24ZM19.25 24C20.078 24 20.75 23.328 20.75 22.5C20.75 21.672 20.078 21 19.25 21C18.422 21 17.75 21.672 17.75 22.5C17.75 23.328 18.422 24 19.25 24Z" fill="#247CFF"/>
</g>
</g>
</g>
<defs>
<clipPath id="clip0_11_392">
<rect width="24" height="24" fill="white" transform="translate(12 12)"/>
</clipPath>
<clipPath id="clip1_11_392">
<rect width="24" height="24" fill="white" transform="translate(12.25 12)"/>
</clipPath>
<clipPath id="clip2_11_392">
<rect width="24" height="24" fill="white" transform="matrix(-1 0 0 1 36.25 12)"/>
</clipPath>
</defs>
</svg>
