<svg width="48" height="48" viewBox="0 0 48 48" fill="none" xmlns="http://www.w3.org/2000/svg">
<g clip-path="url(#clip0_3_86)">
<g clip-path="url(#clip1_3_86)">
<path d="M25.75 22.5C25.75 23.328 25.078 24 24.25 24C23.422 24 22.75 23.328 22.75 22.5C22.75 21.672 23.422 21 24.25 21C25.078 21 25.75 21.672 25.75 22.5ZM29.25 21C28.422 21 27.75 21.672 27.75 22.5C27.75 23.328 28.422 24 29.25 24C30.078 24 30.75 23.328 30.75 22.5C30.75 21.672 30.078 21 29.25 21ZM19.25 21C18.422 21 17.75 21.672 17.75 22.5C17.75 23.328 18.422 24 19.25 24C20.078 24 20.75 23.328 20.75 22.5C20.75 21.672 20.078 21 19.25 21ZM36.25 16V28C36.25 30.206 34.456 32 32.25 32H29.398L25.55 35.18C25.189 35.502 24.726 35.664 24.258 35.664C23.782 35.664 23.303 35.496 22.921 35.157L19.172 32H16.249C14.043 32 12.249 30.206 12.249 28V16C12.25 13.794 14.044 12 16.25 12H32.25C34.456 12 36.25 13.794 36.25 16ZM34.25 16C34.25 14.897 33.353 14 32.25 14H16.25C15.147 14 14.25 14.897 14.25 16V28C14.25 29.103 15.147 30 16.25 30H19.538C19.773 30 20.002 30.083 20.183 30.235L24.231 33.645L28.402 30.229C28.581 30.081 28.806 30 29.039 30H32.251C33.354 30 34.251 29.103 34.251 28L34.25 16Z" fill="#BDBCBF"/>
</g>
</g>
<defs>
<clipPath id="clip0_3_86">
<rect width="24" height="24" fill="white" transform="translate(12 12)"/>
</clipPath>
<clipPath id="clip1_3_86">
<rect width="24" height="24" fill="white" transform="translate(12.25 12)"/>
</clipPath>
</defs>
</svg>
