<svg width="64" height="64" viewBox="0 0 64 64" fill="none" xmlns="http://www.w3.org/2000/svg">
<g filter="url(#filter0_d_3_83)">
<rect x="8" y="1" width="48" height="48" rx="24" fill="#247CFF" shape-rendering="crispEdges"/>
<g clip-path="url(#clip0_3_83)">
<path d="M38.125 24.125H32.875V18.875C32.875 18.3918 32.4832 18 32 18C31.5168 18 31.125 18.3918 31.125 18.875V24.125H25.875C25.3918 24.125 25 24.5168 25 25C25 25.4832 25.3918 25.875 25.875 25.875H31.125V31.125C31.125 31.6082 31.5168 32 32 32C32.4832 32 32.875 31.6082 32.875 31.125V25.875H38.125C38.6082 25.875 39 25.4832 39 25C39 24.5168 38.6082 24.125 38.125 24.125Z" fill="white"/>
</g>
</g>
<defs>
<filter id="filter0_d_3_83" x="0" y="0" width="64" height="64" filterUnits="userSpaceOnUse" color-interpolation-filters="sRGB">
<feFlood flood-opacity="0" result="BackgroundImageFix"/>
<feColorMatrix in="SourceAlpha" type="matrix" values="0 0 0 0 0 0 0 0 0 0 0 0 0 0 0 0 0 0 127 0" result="hardAlpha"/>
<feOffset dy="7"/>
<feGaussianBlur stdDeviation="4"/>
<feComposite in2="hardAlpha" operator="out"/>
<feColorMatrix type="matrix" values="0 0 0 0 0.141176 0 0 0 0 0.486275 0 0 0 0 1 0 0 0 0.3 0"/>
<feBlend mode="normal" in2="BackgroundImageFix" result="effect1_dropShadow_3_83"/>
<feBlend mode="normal" in="SourceGraphic" in2="effect1_dropShadow_3_83" result="shape"/>
</filter>
<clipPath id="clip0_3_83">
<rect width="14" height="14" fill="white" transform="translate(25 18)"/>
</clipPath>
</defs>
</svg>
